<mxfile host="app.diagrams.net" modified="2023-05-14T09:31:29.965Z" agent="Mozilla/5.0 (X11; Linux x86_64; rv:102.0) Gecko/20100101 Firefox/102.0" version="21.3.0" etag="MnRp6VoT9pzfq-72W27_" type="github">
  <diagram name="Page-1" id="jdx-9si-7qBJH08v3iHI">
    <mxGraphModel>
      <root>
        <mxCell id="0" />
        <mxCell id="1" parent="0" />
      </root>
    </mxGraphModel>
  </diagram>
</mxfile>
